<svg width="700" height="700" viewBox="0 0 700 700" fill="none" xmlns="http://www.w3.org/2000/svg">
<rect width="700" height="700" fill="#1E1E1E"/>
<rect width="700" height="700" fill="white"/>
<path d="M75 423.524H625" stroke="black"/>
<line x1="192.857" y1="460.497" x2="507.143" y2="460.497" stroke="black"/>
<line x1="310.714" y1="496.528" x2="389.286" y2="496.528" stroke="black"/>
<path fill-rule="evenodd" clip-rule="evenodd" d="M248.129 208.654C246.637 204.348 251.214 200.454 255.226 202.616L381.836 270.846C382.599 271.257 383.242 271.859 383.702 272.593L450.417 379.119C452.502 382.449 450.108 386.772 446.179 386.772H261.365C257.193 386.772 254.856 381.963 257.434 378.683L279.679 350.381H287.977L284.287 344.519L290.17 337.034C291.221 335.696 291.52 333.916 290.963 332.308L285.054 315.249L298.841 300.603L278.764 297.089L248.129 208.654Z" fill="black"/>
</svg>
